Coordinates
version=1
nRows=29
nColumns=24
inDegrees=yes

Units are S.I. units (second, meters, Newtons, ...)
Angles are in degrees.

endheader
time	pelvis_tilt	pelvis_list	pelvis_rotation	pelvis_tx	pelvis_ty	pelvis_tz	hip_flexion_r	hip_adduction_r	hip_rotation_r	knee_angle_r	ankle_angle_r	subtalar_angle_r	mtp_angle_r	hip_flexion_l	hip_adduction_l	hip_rotation_l	knee_angle_l	ankle_angle_l	subtalar_angle_l	mtp_angle_l	lumbar_extension	lumbar_bending	lumbar_rotation
      1.97500000	      9.47949147	      0.91940928	      4.40596095	      0.46772039	      1.01134858	      0.07592541	     -1.26678941	      0.25937013	    -22.17406205	    -16.56775973	      1.48096261	      9.00694998	      9.48897775	      1.08745200	     -7.61143585	    -12.08302259	    -50.77746654	     -4.68431250	    -11.37294267	     18.72183348	    -14.34321147	     -7.04963325	    -25.87132794
      1.98000000	      9.52605171	      0.93037109	      4.14217476	      0.47378121	      1.01231360	      0.07659152	     -1.88502393	      0.34965303	    -22.00690377	    -16.14704811	      1.52814682	      9.19722350	      9.36219135	      1.46651584	     -7.45928983	    -12.33652437	    -50.07286327	     -4.26663901	    -11.23005340	     18.76810147	    -14.32125621	     -7.12441544	    -25.63072259
      1.98500000	      9.56608555	      0.93583167	      3.87714836	      0.47981103	      1.01321152	      0.07725911	     -2.48959768	      0.44039729	    -21.82870336	    -15.73470427	      1.58686435	      9.37282556	      9.19109943	      1.84503788	     -7.31267933	    -12.59240685	    -49.32580605	     -3.89152287	    -11.08567911	     18.80161451	    -14.29520756	     -7.19670083	    -25.38417174
      1.99000000	      9.58830959	      0.91854154	      3.61926629	      0.48579668	      1.01401384	      0.07792464	     -3.06391854	      0.55179658	    -21.62817816	    -15.35552716	      1.91758912	      9.63358868	      6.93480984	      2.24622309	     -7.19183540	    -12.84160986	    -48.56325215	     -3.48961636	    -10.90749532	     18.60672134	    -14.25309892	     -7.24755778	    -25.15624544
      1.99500000	      9.63461637	      0.93880005	      3.34670742	      0.49179145	      1.01481028	      0.07854838	     -3.66333902	      0.60996909	    -21.46093837	    -14.96949115	      1.97801937	      9.77845108	      6.91148615	      2.58877658	     -7.02075188	    -13.11335342	    -47.71643107	     -3.22371437	    -10.86400819	     18.63509973	    -14.24000946	     -7.33570934	    -24.91851503
      2.00000000	      9.66733716	      0.93702684	      3.07216967	      0.49777108	      1.01551004	      0.07920734	     -4.24357780	      0.68992248	    -21.27926632	    -14.58467498	      2.02814887	      9.92387338	      6.86308958	      2.94245610	     -6.88065327	    -13.39261795	    -46.84768636	     -2.98102326	    -10.78117417	     18.65711283	    -14.21040299	     -7.40857373	    -24.67257837
      2.00500000	      9.69465355	      0.93040274	      2.79722723	      0.50371637	      1.01613681	      0.07985672	     -4.81123606	      0.76840539	    -21.09431798	    -14.20946007	      2.09040660	     10.05933311	      6.79248173	      3.29489654	     -6.74680102	    -13.67651306	    -45.94787753	     -2.78144685	    -10.70391795	     18.66531099	    -14.17909513	     -7.47658709	    -24.42223666
      2.01000000	      9.71346334	      0.91967027	      2.51635759	      0.50962372	      1.01668873	      0.08050840	     -5.36028160	      0.84411724	    -20.88360235	    -13.85347010	      2.20503674	     10.19968976	      6.60911567	      3.64845838	     -6.61629345	    -13.95701266	    -45.01452248	     -2.63348984	    -10.62007979	     18.64301826	    -14.14197940	     -7.54085732	    -24.14936069
      2.01500000	      9.73197737	      0.90776041	      2.24154227	      0.51554987	      1.01717818	      0.08113835	     -5.91123531	      0.91545341	    -20.71536783	    -13.49190817	      2.25297685	     10.32621736	      6.50446314	      3.98913761	     -6.49170723	    -14.26872016	    -44.04974455	     -2.51387864	    -10.59363505	     18.62317325	    -14.10341584	     -7.60680104	    -23.91924631
      2.02000000	      9.74980704	      0.88587808	      1.96395816	      0.52143787	      1.01759073	      0.08177191	     -6.45314488	      0.99071411	    -20.53193105	    -13.14742245	      2.35021345	     10.46267837	      6.37561958	      4.32488744	     -6.37935887	    -14.57685404	    -43.06057930	     -2.44348237	    -10.55764077	     18.58725888	    -14.06784344	     -7.66297180	    -23.66733455
      2.02500000	      9.75757337	      0.86437091	      1.69544033	      0.52728759	      1.01792903	      0.08239192	     -6.98129819	      1.06192197	    -20.33598305	    -12.80386646	      2.42670615	     10.60063680	      6.27203376	      4.66557322	     -6.26311945	    -14.86462066	    -42.04270461	     -2.41176098	    -10.53192638	     18.54817316	    -14.02844441	     -7.72293692	    -23.43574772
      2.03000000	      9.76553076	      0.82901659	      1.42574484	      0.53311690	      1.01819748	      0.08299359	     -7.50235615	      1.14017772	    -20.15550866	    -12.47534411	      2.52894570	     10.73690032	      6.16523620	      4.99999119	     -6.16871703	    -15.18362933	    -41.00875193	     -2.42543253	    -10.50865534	     18.49682988	    -13.99171784	     -7.76137910	    -23.18385267
      2.03500000	      9.76434994	      0.78959271	      1.15145432	      0.53893159	      1.01838197	      0.08360933	     -8.00720230	      1.21652879	    -19.98046963	    -12.16066978	      2.64100556	     10.87365901	      6.04758460	      5.33523161	     -6.08337180	    -15.51995317	    -39.95550312	     -2.46897699	    -10.48962550	     18.43321950	    -13.94565490	     -7.80255602	    -22.93437843
      2.04000000	      9.75817489	      0.73911026	      0.88553123	      0.54471944	      1.01849117	      0.08420179	     -8.50222724	      1.29975484	    -19.80996694	    -11.85445638	      2.76111996	     11.00830552	      5.92330078	      5.67120577	     -6.01124017	    -15.86080864	    -38.88532090	     -2.54102745	    -10.46792372	     18.35785413	    -13.90015385	     -7.82977344	    -22.69168831
      2.04500000	      9.73031873	      0.67273862	      0.60203215	      0.55045959	      1.01850164	      0.08481075	     -8.95973705	      1.39331915	    -19.57618782	    -11.59164177	      3.22366716	     11.16896968	      3.46702409	      6.02858230	     -5.96224501	    -16.24016511	    -37.82541360	     -2.50016907	    -10.38303100	     17.44392779	    -13.83473751	     -7.84185070	    -22.42998234
      2.05000000	      9.72830899	      0.61263296	      0.35166356	      0.55622707	      1.01848272	      0.08535954	     -9.45252955	      1.47496776	    -19.45767618	    -11.30631872	      3.35049501	     11.35524964	      3.45938126	      6.34524176	     -5.90472087	    -16.59916657	    -36.72135239	     -2.63714890	    -10.33916143	     17.42410549	    -13.80025953	     -7.85525175	    -22.19870583
      2.05500000	      9.70468457	      0.54100932	      0.09381538	      0.56195371	      1.01836461	      0.08590955	     -9.91480978	      1.56322517	    -19.29992950	    -11.02841187	      3.47863355	     11.51132455	      3.43548908	      6.68130709	     -5.86148500	    -16.97738779	    -35.61163271	     -2.77846186	    -10.29484415	     17.38301487	    -13.74734874	     -7.85825343	    -21.95890832
      2.06000000	      9.68494875	      0.46060086	     -0.15780471	      0.56766619	      1.01818272	      0.08645380	    -10.37860198	      1.65788290	    -19.14545318	    -10.75778862	      3.61475486	     11.65314457	      3.40146507	      7.00710724	     -5.83076180	    -17.36985972	    -34.49187232	     -2.93253969	    -10.22222742	     17.32157642	    -13.70262543	     -7.85454814	    -21.72973144
      2.06500000	      9.64962120	      0.36893231	     -0.40839293	      0.57336452	      1.01791548	      0.08698671	    -10.81978199	      1.75872248	    -18.98223940	    -10.50003328	      3.76087338	     11.80247156	      3.35394091	      7.34382606	     -5.81373230	    -17.77804793	    -33.36525237	     -3.09008674	    -10.11916771	     17.23603234	    -13.64322094	     -7.83820858	    -21.49565630
      2.07000000	      9.61813845	      0.27315597	     -0.65214736	      0.57904170	      1.01759186	      0.08749432	    -11.26127518	      1.85878937	    -18.83522478	    -10.25051756	      3.91052690	     11.94888878	      3.30689054	      7.67162438	     -5.80219852	    -18.20640706	    -32.23054523	     -3.26107676	     -9.98469916	     17.13642157	    -13.59567465	     -7.81425434	    -21.26958139
      2.07500000	      9.58139857	      0.16792046	     -0.89590956	      0.58469853	      1.01719674	      0.08798706	    -11.69188096	      1.96218479	    -18.68063001	    -10.01323176	      4.07369830	     12.11282688	      3.24777227	      7.99852642	     -5.80059669	    -18.64914024	    -31.09035286	     -3.41580718	     -9.80721866	     17.01049124	    -13.54721230	     -7.77891856	    -21.03497826
      2.08000000	      9.53277275	      0.05733398	     -1.12981559	      0.59036683	      1.01673347	      0.08846329	    -12.10831489	      2.06864533	    -18.54426645	     -9.78364235	      4.23850374	     12.28028329	      3.19208041	      8.33222807	     -5.80573886	    -19.10991366	    -29.94485707	     -3.57858372	     -9.58682890	     16.87524940	    -13.48552137	     -7.73839610	    -20.81162339
      2.08500000	      9.48555832	     -0.06157269	     -1.36552873	      0.59600882	      1.01621191	      0.08891808	    -12.51778287	      2.17506140	    -18.40369227	     -9.57231139	      4.41281183	     12.45795064	      3.13160831	      8.65755712	     -5.81930533	    -19.59643127	    -28.79309240	     -3.71912859	     -9.31022576	     16.72156073	    -13.43285429	     -7.68902168	    -20.59037656
      2.09000000	      9.42649109	     -0.18732634	     -1.59353946	      0.60164276	      1.01561621	      0.08934789	    -12.91082653	      2.28567588	    -18.27976339	     -9.36975881	      4.59134012	     12.64390812	      3.07776193	      8.99252052	     -5.83926318	    -20.09779607	    -27.64240121	     -3.85231743	     -8.98896555	     16.56688170	    -13.37190538	     -7.62812747	    -20.37015750
      2.09500000	      9.36646680	     -0.31828843	     -1.81861183	      0.60726745	      1.01496116	      0.08975593	    -13.29859070	      2.39585316	    -18.16090906	     -9.17976080	      4.77962906	     12.84277262	      3.02528053	      9.32244661	     -5.86352895	    -20.61986140	    -26.48837347	     -3.95886067	     -8.60390746	     16.40471908	    -13.31484220	     -7.56257910	    -20.15502380
      2.10000000	      9.30224304	     -0.45566280	     -2.04398430	      0.61288536	      1.01425693	      0.09013581	    -13.67714833	      2.50587687	    -18.04210909	     -8.99967980	      4.97753090	     13.05706083	      2.95907655	      9.64916995	     -5.89290368	    -21.16347670	    -25.33205772	     -4.02838731	     -8.14712752	     16.21048190	    -13.25488676	     -7.48530910	    -19.93338846
      2.10500000	      9.23194107	     -0.59135447	     -2.25769492	      0.61851156	      1.01349239	      0.09050299	    -14.04500971	      2.61258772	    -17.95007399	     -8.83548250	      5.17218029	     13.26848313	      2.91143377	      9.97686462	     -5.91832910	    -21.72794897	    -24.17105732	     -4.09594745	     -7.66362960	     16.04626051	    -13.19333504	     -7.41509449	    -19.73058792
      2.11000000	      9.14029976	     -0.75050023	     -2.45270275	      0.62412299	      1.01264689	      0.09084493	    -14.38481880	      2.74778316	    -17.87273262	     -8.68557744	      5.39384494	     13.43856012	      2.57462165	     10.33534108	     -5.97550078	    -22.30996732	    -23.04716810	     -4.01445083	     -6.95038374	     15.31077791	    -13.11623399	     -7.31837239	    -19.56247250
      2.11500000	      9.07609694	     -0.88744028	     -2.68230707	      0.62972416	      1.01181010	      0.09113865	    -14.74557834	      2.83363985	    -17.77197656	     -8.55006472	      5.61577071	     13.71921416	      2.56980233	     10.63113554	     -5.98462666	    -22.91240097	    -21.85326864	     -4.08273221	     -6.47269485	     15.24709507	    -13.06884223	     -7.24011312	    -19.32627426
